<svg id="visual" viewBox="0 0 900 600" width="900" height="600" xmlns="http://www.w3.org/2000/svg" xmlns:xlink="http://www.w3.org/1999/xlink" version="1.1"><rect x="0" y="0" width="900" height="600" fill="#f6d997"></rect><path d="M0 391L6.5 393.7C13 396.3 26 401.7 39 396.8C52 392 65 377 78 376.2C91 375.3 104 388.7 117.2 396.5C130.3 404.3 143.7 406.7 156.8 399.5C170 392.3 183 375.7 196 373.5C209 371.3 222 383.7 235 387.3C248 391 261 386 274 387.3C287 388.7 300 396.3 313 390.2C326 384 339 364 352 362.5C365 361 378 378 391 373C404 368 417 341 430.2 342.7C443.3 344.3 456.7 374.7 469.8 387.3C483 400 496 395 509 393.3C522 391.7 535 393.3 548 391.3C561 389.3 574 383.7 587 374.7C600 365.7 613 353.3 626 355.5C639 357.7 652 374.3 665 374.3C678 374.3 691 357.7 704 345.8C717 334 730 327 743.2 323.2C756.3 319.3 769.7 318.7 782.8 323.7C796 328.7 809 339.3 822 340.2C835 341 848 332 861 331.8C874 331.7 887 340.3 893.5 344.7L900 349L900 601L893.5 601C887 601 874 601 861 601C848 601 835 601 822 601C809 601 796 601 782.8 601C769.7 601 756.3 601 743.2 601C730 601 717 601 704 601C691 601 678 601 665 601C652 601 639 601 626 601C613 601 600 601 587 601C574 601 561 601 548 601C535 601 522 601 509 601C496 601 483 601 469.8 601C456.7 601 443.3 601 430.2 601C417 601 404 601 391 601C378 601 365 601 352 601C339 601 326 601 313 601C300 601 287 601 274 601C261 601 248 601 235 601C222 601 209 601 196 601C183 601 170 601 156.8 601C143.7 601 130.3 601 117.2 601C104 601 91 601 78 601C65 601 52 601 39 601C26 601 13 601 6.5 601L0 601Z" fill="#ff640c"></path><path d="M0 396L6.5 387.3C13 378.7 26 361.3 39 359.5C52 357.7 65 371.3 78 373.7C91 376 104 367 117.2 370.8C130.3 374.7 143.7 391.3 156.8 396.3C170 401.3 183 394.7 196 392.5C209 390.3 222 392.7 235 385.2C248 377.7 261 360.3 274 351.3C287 342.3 300 341.7 313 350.5C326 359.3 339 377.7 352 388.5C365 399.3 378 402.7 391 401.2C404 399.7 417 393.3 430.2 394.3C443.3 395.3 456.7 403.7 469.8 408.2C483 412.7 496 413.3 509 401.3C522 389.3 535 364.7 548 358.3C561 352 574 364 587 370.5C600 377 613 378 626 381.3C639 384.7 652 390.3 665 384.8C678 379.3 691 362.7 704 360.8C717 359 730 372 743.2 377C756.3 382 769.7 379 782.8 377.7C796 376.3 809 376.7 822 383C835 389.3 848 401.7 861 394.7C874 387.7 887 361.3 893.5 348.2L900 335L900 601L893.5 601C887 601 874 601 861 601C848 601 835 601 822 601C809 601 796 601 782.8 601C769.7 601 756.3 601 743.2 601C730 601 717 601 704 601C691 601 678 601 665 601C652 601 639 601 626 601C613 601 600 601 587 601C574 601 561 601 548 601C535 601 522 601 509 601C496 601 483 601 469.8 601C456.7 601 443.3 601 430.2 601C417 601 404 601 391 601C378 601 365 601 352 601C339 601 326 601 313 601C300 601 287 601 274 601C261 601 248 601 235 601C222 601 209 601 196 601C183 601 170 601 156.8 601C143.7 601 130.3 601 117.2 601C104 601 91 601 78 601C65 601 52 601 39 601C26 601 13 601 6.5 601L0 601Z" fill="#ff5724"></path><path d="M0 362L6.5 365.7C13 369.3 26 376.7 39 385.7C52 394.7 65 405.3 78 409.7C91 414 104 412 117.2 408.5C130.3 405 143.7 400 156.8 397.3C170 394.7 183 394.3 196 390.3C209 386.3 222 378.7 235 386C248 393.3 261 415.7 274 422.7C287 429.7 300 421.3 313 409.7C326 398 339 383 352 375.7C365 368.3 378 368.7 391 370.3C404 372 417 375 430.2 385.8C443.3 396.7 456.7 415.3 469.8 413.7C483 412 496 390 509 385C522 380 535 392 548 396.5C561 401 574 398 587 394.2C600 390.3 613 385.7 626 388C639 390.3 652 399.7 665 407.7C678 415.7 691 422.3 704 424.5C717 426.7 730 424.3 743.2 417.2C756.3 410 769.7 398 782.8 391C796 384 809 382 822 389.7C835 397.3 848 414.7 861 413.2C874 411.7 887 391.3 893.5 381.2L900 371L900 601L893.5 601C887 601 874 601 861 601C848 601 835 601 822 601C809 601 796 601 782.8 601C769.7 601 756.3 601 743.2 601C730 601 717 601 704 601C691 601 678 601 665 601C652 601 639 601 626 601C613 601 600 601 587 601C574 601 561 601 548 601C535 601 522 601 509 601C496 601 483 601 469.8 601C456.7 601 443.3 601 430.2 601C417 601 404 601 391 601C378 601 365 601 352 601C339 601 326 601 313 601C300 601 287 601 274 601C261 601 248 601 235 601C222 601 209 601 196 601C183 601 170 601 156.8 601C143.7 601 130.3 601 117.2 601C104 601 91 601 78 601C65 601 52 601 39 601C26 601 13 601 6.5 601L0 601Z" fill="#ff4935"></path><path d="M0 393L6.5 390.8C13 388.7 26 384.3 39 382.2C52 380 65 380 78 389.3C91 398.7 104 417.3 117.2 425.8C130.3 434.3 143.7 432.7 156.8 436.3C170 440 183 449 196 447.2C209 445.3 222 432.7 235 431.7C248 430.7 261 441.3 274 436.5C287 431.7 300 411.3 313 410.2C326 409 339 427 352 431C365 435 378 425 391 423.2C404 421.3 417 427.7 430.2 432.2C443.3 436.7 456.7 439.3 469.8 436.8C483 434.3 496 426.7 509 420C522 413.3 535 407.7 548 407.3C561 407 574 412 587 418C600 424 613 431 626 434.3C639 437.7 652 437.3 665 433C678 428.7 691 420.3 704 419.3C717 418.3 730 424.7 743.2 419.5C756.3 414.3 769.7 397.7 782.8 397.3C796 397 809 413 822 415.7C835 418.3 848 407.7 861 399.5C874 391.3 887 385.7 893.5 382.8L900 380L900 601L893.5 601C887 601 874 601 861 601C848 601 835 601 822 601C809 601 796 601 782.8 601C769.7 601 756.3 601 743.2 601C730 601 717 601 704 601C691 601 678 601 665 601C652 601 639 601 626 601C613 601 600 601 587 601C574 601 561 601 548 601C535 601 522 601 509 601C496 601 483 601 469.8 601C456.7 601 443.3 601 430.2 601C417 601 404 601 391 601C378 601 365 601 352 601C339 601 326 601 313 601C300 601 287 601 274 601C261 601 248 601 235 601C222 601 209 601 196 601C183 601 170 601 156.8 601C143.7 601 130.3 601 117.2 601C104 601 91 601 78 601C65 601 52 601 39 601C26 601 13 601 6.5 601L0 601Z" fill="#ff3b43"></path><path d="M0 476L6.5 471.5C13 467 26 458 39 456.3C52 454.7 65 460.3 78 454.2C91 448 104 430 117.2 419.7C130.3 409.3 143.7 406.7 156.8 415.2C170 423.7 183 443.3 196 448.2C209 453 222 443 235 434.3C248 425.7 261 418.3 274 413.2C287 408 300 405 313 411C326 417 339 432 352 443.8C365 455.7 378 464.3 391 464.7C404 465 417 457 430.2 455.8C443.3 454.7 456.7 460.3 469.8 453.7C483 447 496 428 509 426C522 424 535 439 548 446.2C561 453.3 574 452.7 587 448.7C600 444.7 613 437.3 626 431.2C639 425 652 420 665 418C678 416 691 417 704 415C717 413 730 408 743.2 411.3C756.3 414.7 769.7 426.3 782.8 434.7C796 443 809 448 822 448.7C835 449.3 848 445.7 861 443.7C874 441.7 887 441.3 893.5 441.2L900 441L900 601L893.5 601C887 601 874 601 861 601C848 601 835 601 822 601C809 601 796 601 782.8 601C769.7 601 756.3 601 743.2 601C730 601 717 601 704 601C691 601 678 601 665 601C652 601 639 601 626 601C613 601 600 601 587 601C574 601 561 601 548 601C535 601 522 601 509 601C496 601 483 601 469.8 601C456.7 601 443.3 601 430.2 601C417 601 404 601 391 601C378 601 365 601 352 601C339 601 326 601 313 601C300 601 287 601 274 601C261 601 248 601 235 601C222 601 209 601 196 601C183 601 170 601 156.8 601C143.7 601 130.3 601 117.2 601C104 601 91 601 78 601C65 601 52 601 39 601C26 601 13 601 6.5 601L0 601Z" fill="#ff2c50"></path><path d="M0 463L6.5 465.7C13 468.3 26 473.7 39 467.7C52 461.7 65 444.3 78 441.7C91 439 104 451 117.2 450.5C130.3 450 143.7 437 156.8 439.5C170 442 183 460 196 469.3C209 478.7 222 479.3 235 477C248 474.7 261 469.3 274 469.8C287 470.3 300 476.7 313 473.2C326 469.7 339 456.3 352 450C365 443.7 378 444.3 391 448.5C404 452.7 417 460.3 430.2 465.5C443.3 470.7 456.7 473.3 469.8 468.7C483 464 496 452 509 452C522 452 535 464 548 467.5C561 471 574 466 587 459.5C600 453 613 445 626 443.5C639 442 652 447 665 444.8C678 442.7 691 433.3 704 440C717 446.7 730 469.3 743.2 480.2C756.3 491 769.7 490 782.8 485.8C796 481.7 809 474.3 822 468.2C835 462 848 457 861 451.2C874 445.3 887 438.7 893.5 435.3L900 432L900 601L893.5 601C887 601 874 601 861 601C848 601 835 601 822 601C809 601 796 601 782.8 601C769.7 601 756.3 601 743.2 601C730 601 717 601 704 601C691 601 678 601 665 601C652 601 639 601 626 601C613 601 600 601 587 601C574 601 561 601 548 601C535 601 522 601 509 601C496 601 483 601 469.8 601C456.7 601 443.3 601 430.2 601C417 601 404 601 391 601C378 601 365 601 352 601C339 601 326 601 313 601C300 601 287 601 274 601C261 601 248 601 235 601C222 601 209 601 196 601C183 601 170 601 156.8 601C143.7 601 130.3 601 117.2 601C104 601 91 601 78 601C65 601 52 601 39 601C26 601 13 601 6.5 601L0 601Z" fill="#ff1c5e"></path><path d="M0 503L6.5 503.3C13 503.7 26 504.3 39 496.7C52 489 65 473 78 472.5C91 472 104 487 117.2 487.7C130.3 488.3 143.7 474.7 156.8 475.2C170 475.7 183 490.3 196 497C209 503.7 222 502.3 235 497.5C248 492.7 261 484.3 274 485.7C287 487 300 498 313 498.5C326 499 339 489 352 486.2C365 483.3 378 487.7 391 483.5C404 479.3 417 466.7 430.2 459C443.3 451.3 456.7 448.7 469.8 456.7C483 464.7 496 483.3 509 484.5C522 485.7 535 469.3 548 465.8C561 462.3 574 471.7 587 477.3C600 483 613 485 626 481.2C639 477.3 652 467.7 665 467C678 466.3 691 474.7 704 477.5C717 480.3 730 477.7 743.2 478.3C756.3 479 769.7 483 782.8 478.7C796 474.3 809 461.7 822 461.8C835 462 848 475 861 474.8C874 474.7 887 461.3 893.5 454.7L900 448L900 601L893.5 601C887 601 874 601 861 601C848 601 835 601 822 601C809 601 796 601 782.8 601C769.7 601 756.3 601 743.2 601C730 601 717 601 704 601C691 601 678 601 665 601C652 601 639 601 626 601C613 601 600 601 587 601C574 601 561 601 548 601C535 601 522 601 509 601C496 601 483 601 469.8 601C456.7 601 443.3 601 430.2 601C417 601 404 601 391 601C378 601 365 601 352 601C339 601 326 601 313 601C300 601 287 601 274 601C261 601 248 601 235 601C222 601 209 601 196 601C183 601 170 601 156.8 601C143.7 601 130.3 601 117.2 601C104 601 91 601 78 601C65 601 52 601 39 601C26 601 13 601 6.5 601L0 601Z" fill="#fb0b6a"></path><path d="M0 516L6.5 513.8C13 511.7 26 507.3 39 500.5C52 493.7 65 484.3 78 484.5C91 484.7 104 494.3 117.2 496.7C130.3 499 143.7 494 156.8 496.7C170 499.3 183 509.7 196 513.2C209 516.7 222 513.3 235 512.3C248 511.3 261 512.7 274 514.3C287 516 300 518 313 510.3C326 502.7 339 485.3 352 483.7C365 482 378 496 391 496.8C404 497.7 417 485.3 430.2 483.5C443.3 481.7 456.7 490.3 469.8 496.3C483 502.3 496 505.7 509 505.7C522 505.7 535 502.3 548 495.5C561 488.7 574 478.3 587 478.8C600 479.3 613 490.7 626 492.8C639 495 652 488 665 483.2C678 478.3 691 475.7 704 474C717 472.3 730 471.7 743.2 472.3C756.3 473 769.7 475 782.8 480.2C796 485.3 809 493.7 822 500C835 506.3 848 510.7 861 507.8C874 505 887 495 893.5 490L900 485L900 601L893.5 601C887 601 874 601 861 601C848 601 835 601 822 601C809 601 796 601 782.8 601C769.7 601 756.3 601 743.2 601C730 601 717 601 704 601C691 601 678 601 665 601C652 601 639 601 626 601C613 601 600 601 587 601C574 601 561 601 548 601C535 601 522 601 509 601C496 601 483 601 469.8 601C456.7 601 443.3 601 430.2 601C417 601 404 601 391 601C378 601 365 601 352 601C339 601 326 601 313 601C300 601 287 601 274 601C261 601 248 601 235 601C222 601 209 601 196 601C183 601 170 601 156.8 601C143.7 601 130.3 601 117.2 601C104 601 91 601 78 601C65 601 52 601 39 601C26 601 13 601 6.5 601L0 601Z" fill="#f40077"></path><path d="M0 517L6.5 520.2C13 523.3 26 529.7 39 530.3C52 531 65 526 78 519.3C91 512.7 104 504.3 117.2 500C130.3 495.7 143.7 495.3 156.8 500.7C170 506 183 517 196 522C209 527 222 526 235 520.5C248 515 261 505 274 504.5C287 504 300 513 313 520.7C326 528.3 339 534.7 352 533C365 531.3 378 521.7 391 513.8C404 506 417 500 430.2 501.2C443.3 502.3 456.7 510.7 469.8 513.7C483 516.7 496 514.3 509 511.5C522 508.7 535 505.3 548 504.5C561 503.7 574 505.3 587 506.5C600 507.7 613 508.3 626 512C639 515.7 652 522.3 665 524.3C678 526.3 691 523.7 704 517.5C717 511.3 730 501.7 743.2 502.8C756.3 504 769.7 516 782.8 520.7C796 525.3 809 522.7 822 522.7C835 522.7 848 525.3 861 526.8C874 528.3 887 528.7 893.5 528.8L900 529L900 601L893.5 601C887 601 874 601 861 601C848 601 835 601 822 601C809 601 796 601 782.8 601C769.7 601 756.3 601 743.2 601C730 601 717 601 704 601C691 601 678 601 665 601C652 601 639 601 626 601C613 601 600 601 587 601C574 601 561 601 548 601C535 601 522 601 509 601C496 601 483 601 469.8 601C456.7 601 443.3 601 430.2 601C417 601 404 601 391 601C378 601 365 601 352 601C339 601 326 601 313 601C300 601 287 601 274 601C261 601 248 601 235 601C222 601 209 601 196 601C183 601 170 601 156.8 601C143.7 601 130.3 601 117.2 601C104 601 91 601 78 601C65 601 52 601 39 601C26 601 13 601 6.5 601L0 601Z" fill="#ec0083"></path><path d="M0 539L6.5 538.7C13 538.3 26 537.7 39 539.5C52 541.3 65 545.7 78 543.3C91 541 104 532 117.2 533.5C130.3 535 143.7 547 156.8 546C170 545 183 531 196 525.8C209 520.7 222 524.3 235 528C248 531.7 261 535.3 274 534.2C287 533 300 527 313 527.5C326 528 339 535 352 534.5C365 534 378 526 391 528.8C404 531.7 417 545.3 430.2 552C443.3 558.7 456.7 558.3 469.8 554.7C483 551 496 544 509 543.5C522 543 535 549 548 548.8C561 548.7 574 542.3 587 540.8C600 539.3 613 542.7 626 543.7C639 544.7 652 543.3 665 543.7C678 544 691 546 704 547.5C717 549 730 550 743.2 549.8C756.3 549.7 769.7 548.3 782.8 545.3C796 542.3 809 537.7 822 533.2C835 528.7 848 524.3 861 525.7C874 527 887 534 893.5 537.5L900 541L900 601L893.5 601C887 601 874 601 861 601C848 601 835 601 822 601C809 601 796 601 782.8 601C769.7 601 756.3 601 743.2 601C730 601 717 601 704 601C691 601 678 601 665 601C652 601 639 601 626 601C613 601 600 601 587 601C574 601 561 601 548 601C535 601 522 601 509 601C496 601 483 601 469.8 601C456.7 601 443.3 601 430.2 601C417 601 404 601 391 601C378 601 365 601 352 601C339 601 326 601 313 601C300 601 287 601 274 601C261 601 248 601 235 601C222 601 209 601 196 601C183 601 170 601 156.8 601C143.7 601 130.3 601 117.2 601C104 601 91 601 78 601C65 601 52 601 39 601C26 601 13 601 6.5 601L0 601Z" fill="#e1098f"></path><path d="M0 567L6.5 567.2C13 567.3 26 567.7 39 565.2C52 562.7 65 557.3 78 558C91 558.7 104 565.3 117.2 566.7C130.3 568 143.7 564 156.8 564C170 564 183 568 196 568.7C209 569.3 222 566.7 235 566.2C248 565.7 261 567.3 274 568.5C287 569.7 300 570.3 313 570.7C326 571 339 571 352 570.7C365 570.3 378 569.7 391 569.3C404 569 417 569 430.2 566.2C443.3 563.3 456.7 557.7 469.8 553.2C483 548.7 496 545.3 509 548C522 550.7 535 559.3 548 558.8C561 558.3 574 548.7 587 544.5C600 540.3 613 541.7 626 546.3C639 551 652 559 665 562.3C678 565.7 691 564.3 704 562.5C717 560.7 730 558.3 743.2 559.5C756.3 560.7 769.7 565.3 782.8 567C796 568.7 809 567.3 822 566.2C835 565 848 564 861 564.2C874 564.3 887 565.7 893.5 566.3L900 567L900 601L893.5 601C887 601 874 601 861 601C848 601 835 601 822 601C809 601 796 601 782.8 601C769.7 601 756.3 601 743.2 601C730 601 717 601 704 601C691 601 678 601 665 601C652 601 639 601 626 601C613 601 600 601 587 601C574 601 561 601 548 601C535 601 522 601 509 601C496 601 483 601 469.8 601C456.7 601 443.3 601 430.2 601C417 601 404 601 391 601C378 601 365 601 352 601C339 601 326 601 313 601C300 601 287 601 274 601C261 601 248 601 235 601C222 601 209 601 196 601C183 601 170 601 156.8 601C143.7 601 130.3 601 117.2 601C104 601 91 601 78 601C65 601 52 601 39 601C26 601 13 601 6.5 601L0 601Z" fill="#d5189a"></path><path d="M0 577L6.5 576.5C13 576 26 575 39 574.8C52 574.7 65 575.3 78 575.3C91 575.3 104 574.7 117.2 576.2C130.3 577.7 143.7 581.3 156.8 581C170 580.7 183 576.3 196 574.3C209 572.3 222 572.7 235 574.3C248 576 261 579 274 577.3C287 575.7 300 569.3 313 566.2C326 563 339 563 352 566.8C365 570.7 378 578.3 391 580.7C404 583 417 580 430.2 577.5C443.3 575 456.7 573 469.8 572.5C483 572 496 573 509 574.5C522 576 535 578 548 575.5C561 573 574 566 587 565.8C600 565.7 613 572.3 626 574.3C639 576.3 652 573.7 665 575.7C678 577.7 691 584.3 704 587.5C717 590.7 730 590.3 743.2 590.2C756.3 590 769.7 590 782.8 585.3C796 580.7 809 571.3 822 569.5C835 567.7 848 573.3 861 576.5C874 579.7 887 580.3 893.5 580.7L900 581L900 601L893.5 601C887 601 874 601 861 601C848 601 835 601 822 601C809 601 796 601 782.8 601C769.7 601 756.3 601 743.2 601C730 601 717 601 704 601C691 601 678 601 665 601C652 601 639 601 626 601C613 601 600 601 587 601C574 601 561 601 548 601C535 601 522 601 509 601C496 601 483 601 469.8 601C456.7 601 443.3 601 430.2 601C417 601 404 601 391 601C378 601 365 601 352 601C339 601 326 601 313 601C300 601 287 601 274 601C261 601 248 601 235 601C222 601 209 601 196 601C183 601 170 601 156.8 601C143.7 601 130.3 601 117.2 601C104 601 91 601 78 601C65 601 52 601 39 601C26 601 13 601 6.5 601L0 601Z" fill="#c724a4"></path></svg>